<?xml version="1.0" encoding="utf-8"?>
<!-- Generator: Adobe Illustrator 23.0.2, SVG Export Plug-In . SVG Version: 6.00 Build 0)  -->
<svg version="1.1" id="Ebene_1" xmlns="http://www.w3.org/2000/svg" xmlns:xlink="http://www.w3.org/1999/xlink" x="0px" y="0px"
	 viewBox="0 0 302 87.9" style="enable-background:new 0 0 302 87.9;" xml:space="preserve">
<style type="text/css">
	.st0{fill-rule:evenodd;clip-rule:evenodd;fill:#004573;}
</style>
<title>marcau-startup</title>
<desc>Created with Sketch.</desc>
<g id="Symbols">
	<g transform="translate(-141.000000, -13.000000)">
		<g id="marcau-startup" transform="translate(141.000000, 13.000000)">
			<polyline id="Fill-1" class="st0" points="138.4,10.1 138.4,78.4 118.7,78.4 118.7,10 138.2,10 			"/>
			<path id="Fill-2" class="st0" d="M64.7,29.2v49H45.1v-49H26.7v49H7.1V9.5h71.3c5.9,0,11.2,1.9,15.7,5.7c4.9,4.1,7.3,9.1,7.3,14.9
				v48.1H82v-49H64.7"/>
			<polyline id="Fill-3" class="st0" points="244.1,44.7 224.2,10 244.2,10 257.4,32.3 270.5,10 290.6,10 270.6,44.7 290.6,78.4
				269,78.4 257.4,58 245.7,78.4 224.2,78.4 244.1,44.7 			"/>
			<path id="Fill-4" class="st0" d="M212.9,78.4h-33.3c-5.9,0-11.2-1.9-15.6-5.6c-4.9-4.1-7.3-9-7.3-14.8V10h19.6v48.7h17.1V10h19.6
				v48.7"/>
		</g>
	</g>
</g>
</svg>
