<?xml version="1.0" encoding="utf-8"?>
<!-- Generator: Adobe Illustrator 23.0.2, SVG Export Plug-In . SVG Version: 6.00 Build 0)  -->
<svg version="1.1" id="Ebene_1" xmlns="http://www.w3.org/2000/svg" xmlns:xlink="http://www.w3.org/1999/xlink" x="0px" y="0px"
	 viewBox="0 0 377.8 92.7" style="enable-background:new 0 0 377.8 92.7;" xml:space="preserve">
<style type="text/css">
	.st0{fill-rule:evenodd;clip-rule:evenodd;fill:#004573;}
	.st1{fill-rule:evenodd;clip-rule:evenodd;fill:#A8CC54;}
	.st2{filter:url(#Adobe_OpacityMaskFilter);}
	.st3{fill-rule:evenodd;clip-rule:evenodd;fill:#FFFFFF;}
	.st4{mask:url(#mask-2_1_);fill-rule:evenodd;clip-rule:evenodd;fill:#A8CC54;}
	.st5{filter:url(#Adobe_OpacityMaskFilter_1_);}
	.st6{mask:url(#mask-2_2_);fill-rule:evenodd;clip-rule:evenodd;fill:#A8CC54;}
	.st7{filter:url(#Adobe_OpacityMaskFilter_2_);}
	.st8{mask:url(#mask-2_3_);fill-rule:evenodd;clip-rule:evenodd;fill:#A8CC54;}
	.st9{filter:url(#Adobe_OpacityMaskFilter_3_);}
	.st10{mask:url(#mask-2_4_);fill-rule:evenodd;clip-rule:evenodd;fill:#A8CC54;}
</style>
<title>marcau-startup</title>
<desc>Created with Sketch.</desc>
<g id="Symbols">
	<g transform="translate(-141.000000, -13.000000)">
		<g id="marcau-startup" transform="translate(141.000000, 13.000000)">
			<polyline id="Fill-1" class="st0" points="119.8,19.8 119.8,78.4 102.9,78.4 102.9,19.7 119.6,19.7 			"/>
			<path id="Fill-2" class="st0" d="M56.5,36.2v42.1l-16.8,0V36.2H23.9v42.1H7.1v-59h61.2c5.1,0,9.6,1.6,13.5,4.9
				c4.2,3.5,6.3,7.8,6.3,12.8v41.3H71.4V36.2H56.5"/>
			<polyline id="Fill-3" class="st0" points="210.5,49.5 193.4,19.7 210.6,19.7 221.9,38.8 233.2,19.7 250.4,19.7 233.3,49.5
				250.4,78.4 231.9,78.4 221.9,60.9 211.9,78.4 193.4,78.4 210.5,49.5 			"/>
			<path id="Fill-4" class="st0" d="M183.7,78.4h-28.6c-5.1,0-9.6-1.6-13.4-4.8c-4.2-3.5-6.3-7.7-6.3-12.7V19.7h16.8v41.8h14.7V19.7
				h16.8v41.8"/>
			<path id="Fill-5" class="st1" d="M272.5,42.8c0.8-0.2,1.6-0.1,2.2,0.3l0.2,0.9c1.6,6.7,5.3,8.9,8.6,8.1c1.8-0.4,2.9-2.5,2.3-5
				c-0.4-1.6-1-2.9-6.9-7.5c-3.4-2.7-4.9-5.2-5.6-8.3c-1.3-5.4,1.5-12.3,7.6-13.8c5.3-1.3,8.1,1.2,8.8,4.2c0.5,1.9-0.2,3.7-1.1,4.5
				c-3.1-1.5-5.1-2.1-6.9-1.6c-1.1,0.3-1.7,1.4-1.4,2.8c0.4,1.6,1.7,3.3,5.4,6.6c5.5,4.8,6.7,6.7,7.4,9.6
				c1.3,5.5-2.1,13.4-10.3,15.4c-7.5,1.8-12.4-1.7-13.7-7.1C268.2,48.2,269.1,43.6,272.5,42.8"/>
			<path id="Fill-6" class="st1" d="M296.3,34.5c-1,0.1-1.8,0.2-2.1-0.8c-0.4-1.5,0.4-3.1,2.4-3.7c-0.2-1-0.3-1.8-0.6-3.7
				c-0.6-4.4,1.3-8.1,4.6-8.9c2.2-0.5,3.4,0,4,2.1c0.4,1.5,0.1,2.8-1.3,8.6c1.5-0.4,3.5-1.1,4.1-1.4c0.7,0.3,1.2,1.1,1.4,1.8
				c0.4,1.9-0.4,3.6-2,4c-1.1,0.3-2.2,0.5-3.6,0.6c0,5.7,0.3,8.5,0.4,9.3c0.3,1.2,0.7,1.6,1.7,1.4c2-0.5,4.8-3.7,7-9.2
				c0.9-0.2,2.1,0.2,2.4,1.2c0.7,2.9-4.6,13.5-10.2,14.8c-3.7,0.9-6.7-0.4-7.8-4.9C296.2,44.2,295.9,41.1,296.3,34.5"/>
			<path id="Fill-7" class="st1" d="M320.7,26.4c-2.1,2.2-3.4,6.8-2.5,10.6c0.4,1.8,1.1,1.9,1.8,1.7c0.7-0.2,1.2-0.8,1.7-1.7
				L320.7,26.4L320.7,26.4z M318,46.4c-2.8,0.7-5.4-1.1-6.4-5.6c-1.8-7.3,2.4-16.5,7.3-17.7c0.7-0.2,1-0.2,1.3,0l-0.5-2.9
				c0.3-0.5,0.9-0.9,1.6-1.1c3.3-0.8,5.7,1,6.1,2.7c0.2,0.6,0.3,1.9,0.2,3.4c-0.2,6.6-0.1,9.8,0.2,11.1c0.2,1,0.5,1.1,0.9,1
				c1-0.2,3.1-2.7,5.1-7.9c1-0.2,2,0.2,2.2,1.1c0.8,3.2-5.4,13-8.9,13.9c-2.1,0.5-3.7,0-4.5-3.2c-0.1-0.5-0.2-1.2-0.3-1.9
				C321.7,44.2,319.7,45.9,318,46.4L318,46.4z"/>
			<g id="Group-13" transform="translate(146.887158, 0.000000)">
				<g id="Clip-9">
				</g>
				<defs>
					<filter id="Adobe_OpacityMaskFilter" filterUnits="userSpaceOnUse" x="185.3" y="14.6" width="22.4" height="26.6">
						<feColorMatrix  type="matrix" values="1 0 0 0 0  0 1 0 0 0  0 0 1 0 0  0 0 0 1 0"/>
					</filter>
				</defs>
				<mask maskUnits="userSpaceOnUse" x="185.3" y="14.6" width="22.4" height="26.6" id="mask-2_1_">
					<g class="st2">
						<polygon id="path-1_1_" class="st3" points="154.5,89 223.8,89 223.8,3.5 154.5,3.5 						"/>
					</g>
				</mask>
				<path id="Fill-8" class="st4" d="M199.6,22.5c0.2,1,0,2.3-0.4,4c-0.6,2.5-1,5.2-0.7,6.4c0.2,0.7,0.5,1.1,1.1,1
					c1.4-0.3,4-4.2,5.6-8.9c1.2-0.3,2.2,0.3,2.4,1c0.7,3.1-5.5,13.8-10,14.9c-3,0.7-4.9-0.2-5.6-3c-0.8-3.2,0.6-8,0.3-9.2
					c-0.1-0.6-0.7-0.8-1.9-0.9c-0.8,3.3-1.5,5.2-2.7,7.4c-1.2,0.3-2.2-0.4-2.4-1.4c-0.1-0.4-0.1-0.9,0.1-1.3
					c0.8-2.1,1.5-3.6,1.8-5.8c-0.5-0.3-1-0.9-1.2-1.8c-0.8-3.4,3.1-9.5,5.8-10.2c1.7-0.4,3,0.1,3.3,1.4c0.1,0.3,0.1,0.7,0.1,1
					c-1,0.9-1.9,1.9-2.2,3.1c0.6,0.2,1.6,0.3,2.5,0.3C198.6,20.8,199.4,21.3,199.6,22.5"/>
				<defs>
					<filter id="Adobe_OpacityMaskFilter_1_" filterUnits="userSpaceOnUse" x="203.2" y="3.5" width="20.5" height="33.7">
						<feColorMatrix  type="matrix" values="1 0 0 0 0  0 1 0 0 0  0 0 1 0 0  0 0 0 1 0"/>
					</filter>
				</defs>
				<mask maskUnits="userSpaceOnUse" x="203.2" y="3.5" width="20.5" height="33.7" id="mask-2_2_">
					<g class="st5">
						<polygon id="path-1_2_" class="st3" points="154.5,89 223.8,89 223.8,3.5 154.5,3.5 						"/>
					</g>
				</mask>
				<path id="Fill-10" class="st6" d="M205.4,20.8c-1,0.1-1.8,0.2-2.1-0.8c-0.4-1.5,0.4-3.1,2.4-3.7c-0.2-1-0.3-1.8-0.6-3.7
					c-0.6-4.4,1.3-8.1,4.6-8.9c2.2-0.5,3.4,0,4,2.1c0.4,1.5,0.1,2.8-1.3,8.6c1.5-0.4,3.5-1.1,4.1-1.4c0.7,0.3,1.2,1.1,1.4,1.8
					c0.4,1.9-0.4,3.6-2,4c-1.1,0.3-2.2,0.5-3.6,0.6c0,5.7,0.3,8.5,0.4,9.3c0.3,1.2,0.7,1.6,1.7,1.4c2-0.5,4.8-3.7,7-9.2
					c0.9-0.2,2.1,0.2,2.4,1.2c0.7,2.9-4.6,13.5-10.2,14.8c-3.7,0.9-6.7-0.4-7.8-4.9C205.3,30.6,205.1,27.5,205.4,20.8"/>
				<defs>
					<filter id="Adobe_OpacityMaskFilter_2_" filterUnits="userSpaceOnUse" x="154.5" y="55.8" width="25.8" height="27.2">
						<feColorMatrix  type="matrix" values="1 0 0 0 0  0 1 0 0 0  0 0 1 0 0  0 0 0 1 0"/>
					</filter>
				</defs>
				<mask maskUnits="userSpaceOnUse" x="154.5" y="55.8" width="25.8" height="27.2" id="mask-2_3_">
					<g class="st7">
						<polygon id="path-1_3_" class="st3" points="154.5,89 223.8,89 223.8,3.5 154.5,3.5 						"/>
					</g>
				</mask>
				<path id="Fill-11" class="st8" d="M167.4,56c2.7-0.7,5.2,0.8,5.7,2.8c0.2,0.9,0.3,1.9,0,4c-0.4,3-1.3,8.1-1.1,9
					c0.2,0.6,0.5,0.7,0.9,0.6c1.1-0.3,3-2.8,5-8c1-0.2,2.1,0.2,2.4,1c0.4,1.8-1.2,5.5-3.5,8.7c-1.8,2.6-4,4.8-6,5.3
					c-2,0.5-3.4,0.1-4-2.4c-0.2-0.7-0.3-1.5-0.3-2.6c-1.3,5-3.7,7.8-5.9,8.3c-2.9,0.7-4-0.8-4.7-3.7c-0.4-1.5-0.4-4.5,0.2-7.9
					c-0.8-0.9-1.1-1.9-1.4-2.9c-0.7-3,2.6-9.6,6-10.5c1.5-0.4,2.5-0.1,2.8,1.4c0.4,1.6-0.2,4.8-1.7,9.5c-0.1,1.9,0,3.4,0.2,4.2
					c0.2,0.8,0.6,1.2,1.3,1c0.8-0.2,2.1-1.8,2.8-3c0.4-5.7,0.2-9.3-0.5-13.5C165.9,56.6,166.6,56.1,167.4,56"/>
				<defs>
					<filter id="Adobe_OpacityMaskFilter_3_" filterUnits="userSpaceOnUse" x="176.9" y="49.2" width="26" height="39.9">
						<feColorMatrix  type="matrix" values="1 0 0 0 0  0 1 0 0 0  0 0 1 0 0  0 0 0 1 0"/>
					</filter>
				</defs>
				<mask maskUnits="userSpaceOnUse" x="176.9" y="49.2" width="26" height="39.9" id="mask-2_4_">
					<g class="st9">
						<polygon id="path-1_4_" class="st3" points="154.5,89 223.8,89 223.8,3.5 154.5,3.5 						"/>
					</g>
				</mask>
				<path id="Fill-12" class="st10" d="M179.5,85.9c-0.3-1.4-0.2-4,0.8-7.8l-2.9-14.3c-1.7-8.4,1.7-13.6,5.2-14.4
					c2-0.5,3.5,0.1,3.8,1.6c0,0.1,0.1,0.3,0.1,0.6c-1.4,2.1-2.4,4.8-2.5,9.2c2-5.4,4.5-8.5,6.6-9c2.4-0.6,4.3,0.9,4.9,3.5
					c0.7,3-0.5,7.5-2.8,12c0.6,0.2,1.2,0.3,1.9,0.1c1.1-0.3,3.8-2.8,5.9-8.3c0.9-0.2,2.1,0.2,2.3,1.2c0.7,3.1-5.4,12.7-9.9,13.8
					c-3.4,0.8-5-1.6-5.5-3.7c-0.3-1.2-0.1-2.2,1.2-2.9c0.5-1.9,0.7-3.6,0.5-4.7c-0.2-1-0.7-1.3-1.3-1.1c-0.6,0.2-1.4,1.1-2.8,3.5
					c2.7,13.8,3.8,23.2,0.8,23.9C183.4,89.5,180,88.3,179.5,85.9"/>
			</g>
		</g>
	</g>
</g>
</svg>
