<svg version="1.1" viewBox="0 0 715 60.032" xmlns="http://www.w3.org/2000/svg">
 <defs>
  <style>.alinie{clip-path:url(#a);}.blinie{fill:none;stroke:#000;stroke-linecap:round;}</style>
 </defs>
 <line class="blinie" x1=".54803" x2="329.48" y1="30.329" y2="30.329" fill="none" stroke="#000" stroke-linecap="round" stroke-width="0.5"/>
 <line class="blinie" x1="385.05" x2="713.98" y1="30.024" y2="30.024" fill="none" stroke="#000" stroke-linecap="round" stroke-width="0.5"/>
 <g transform="matrix(.69439 0 0 .69439 356.6 106.8)">
  <path class="startup" d="m-13.446-112.23a1.107 1.107 0 0 1 0.883 0.12l0.08 0.361c0.642 2.69 2.128 3.573 3.453 3.252a1.542 1.542 0 0 0 0.923-2.007c-0.161-0.642-0.4-1.164-2.77-3.011a5.6 5.6 0 0 1-2.248-3.332c-0.522-2.168 0.6-4.938 3.051-5.541 2.128-0.522 3.252 0.482 3.533 1.686a1.872 1.872 0 0 1-0.442 1.807 4.056 4.056 0 0 0-2.77-0.642 0.879 0.879 0 0 0-0.562 1.124c0.161 0.642 0.683 1.325 2.168 2.65 2.208 1.927 2.69 2.69 2.971 3.854a5.377 5.377 0 0 1-4.135 6.183c-3.011 0.723-4.978-0.683-5.5-2.851-0.361-1.486 0-3.332 1.365-3.654"/>
  <path class="startup" d="m-3.891-115.56c-0.4 0.04-0.723 0.08-0.843-0.321a1.222 1.222 0 0 1 0.964-1.485c-0.08-0.4-0.12-0.723-0.241-1.485-0.241-1.767 0.522-3.252 1.847-3.573 0.883-0.2 1.365 0 1.606 0.843 0.161 0.6 0.04 1.124-0.522 3.453a12.522 12.522 0 0 0 1.646-0.562 1.135 1.135 0 0 1 0.562 0.723 1.269 1.269 0 0 1-0.8 1.606 7.226 7.226 0 0 1-1.445 0.241 31.584 31.584 0 0 0 0.161 3.734c0.12 0.482 0.281 0.642 0.683 0.562 0.8-0.2 1.927-1.485 2.81-3.694a0.819 0.819 0 0 1 0.964 0.482c0.281 1.164-1.847 5.42-4.1 5.942a2.351 2.351 0 0 1-3.132-1.967 13.86 13.86 0 0 1-0.161-4.5"/>
  <path class="startup" d="m5.907-118.81a5.061 5.061 0 0 0-1 4.256c0.161 0.723 0.442 0.763 0.723 0.683a1.25 1.25 0 0 0 0.683-0.683l-0.4-4.256zm-1.084 8.03c-1.124 0.281-2.168-0.442-2.569-2.248-0.723-2.931 0.964-6.625 2.931-7.106 0.281-0.08 0.4-0.08 0.522 0l-0.2-1.164a1.1 1.1 0 0 1 0.642-0.442 1.939 1.939 0 0 1 2.449 1.084 4.272 4.272 0 0 1 0.08 1.365 24.235 24.235 0 0 0 0.08 4.456c0.08 0.4 0.2 0.442 0.361 0.4 0.4-0.08 1.245-1.084 2.048-3.172a0.7 0.7 0 0 1 0.883 0.442c0.321 1.285-2.168 5.219-3.573 5.581-0.843 0.2-1.485 0-1.807-1.285-0.04-0.2-0.08-0.482-0.12-0.763-0.241 1.967-1.044 2.65-1.726 2.851z"/>
  <g transform="translate(-1.806,-128)">
   <path class="startup" transform="translate(-319.82,-10.131)" d="m337.89 17.751a4.061 4.061 0 0 1-0.161 1.606 7.229 7.229 0 0 0-0.281 2.57c0.08 0.281 0.2 0.442 0.442 0.4 0.562-0.12 1.606-1.686 2.248-3.573a0.778 0.778 0 0 1 0.964 0.4c0.281 1.245-2.208 5.541-4.015 5.982-1.2 0.281-1.967-0.08-2.248-1.2-0.321-1.285 0.241-3.212 0.12-3.694-0.04-0.241-0.281-0.321-0.763-0.361a11.011 11.011 0 0 1-1.084 2.971 0.756 0.756 0 0 1-0.964-0.562 0.783 0.783 0 0 1 0.04-0.522 9.769 9.769 0 0 0 0.723-2.329 1.106 1.106 0 0 1-0.482-0.723c-0.321-1.365 1.245-3.814 2.329-4.1 0.683-0.161 1.2 0.04 1.325 0.562a1.365 1.365 0 0 1 0.04 0.4 2.652 2.652 0 0 0-0.883 1.245 3.615 3.615 0 0 0 1 0.12c1.245 0.12 1.566 0.321 1.646 0.8"/>
   <path class="startup" transform="translate(-330.58,-3.521)" d="m350.97 10.458c-0.4 0.04-0.723 0.08-0.843-0.321a1.222 1.222 0 0 1 0.964-1.485c-0.08-0.4-0.121-0.723-0.241-1.485-0.241-1.767 0.522-3.252 1.847-3.573 0.883-0.2 1.365 0 1.606 0.843 0.161 0.6 0.04 1.124-0.522 3.453a12.523 12.523 0 0 0 1.646-0.562 1.135 1.135 0 0 1 0.562 0.723 1.269 1.269 0 0 1-0.8 1.606 7.225 7.225 0 0 1-1.445 0.241 31.585 31.585 0 0 0 0.161 3.734c0.12 0.482 0.281 0.642 0.683 0.562 0.8-0.2 1.927-1.485 2.81-3.694a0.819 0.819 0 0 1 0.964 0.482c0.281 1.164-1.847 5.42-4.1 5.942a2.351 2.351 0 0 1-3.132-1.967 14.983 14.983 0 0 1-0.161-4.5"/>
   <path class="startup" transform="translate(-301.49,-34.826)" d="m306.63 55.9a1.836 1.836 0 0 1 2.288 1.124 4.107 4.107 0 0 1 0 1.606 31.281 31.281 0 0 0-0.442 3.613c0.08 0.241 0.2 0.281 0.361 0.241 0.442-0.12 1.2-1.124 2.007-3.212a0.845 0.845 0 0 1 0.964 0.4c0.161 0.723-0.482 2.208-1.405 3.493a5.091 5.091 0 0 1-2.409 2.128 1.131 1.131 0 0 1-1.606-0.964 3.725 3.725 0 0 1-0.12-1.044c-0.522 2.007-1.485 3.132-2.369 3.332-1.164 0.281-1.606-0.321-1.887-1.485a8.565 8.565 0 0 1 0.08-3.172 2.845 2.845 0 0 1-0.562-1.164c-0.281-1.2 1.044-3.854 2.409-4.216 0.6-0.161 1-0.04 1.124 0.562a8.875 8.875 0 0 1-0.683 3.814 6.5 6.5 0 0 0 0.08 1.686c0.08 0.321 0.241 0.482 0.522 0.4 0.321-0.08 0.843-0.723 1.124-1.2a21.1 21.1 0 0 0-0.2-5.42 0.905 0.905 0 0 1 0.723-0.522"/>
   <path class="startup" transform="translate(-314.86,-30.877)" d="m324.86 63.951a7.48 7.48 0 0 1 0.321-3.132l-1.164-5.741c-0.683-3.372 0.683-5.46 2.088-5.781 0.8-0.2 1.405 0.04 1.526 0.642a1.419 1.419 0 0 1 0.04 0.241 6.551 6.551 0 0 0-1 3.694c0.8-2.168 1.807-3.413 2.65-3.613a1.6 1.6 0 0 1 1.967 1.405 7.941 7.941 0 0 1-1.124 4.818 1.226 1.226 0 0 0 0.763 0.04c0.442-0.12 1.526-1.124 2.369-3.332a0.753 0.753 0 0 1 0.923 0.482c0.281 1.245-2.168 5.1-3.975 5.541a1.756 1.756 0 0 1-2.208-1.485 0.914 0.914 0 0 1 0.482-1.164 4.845 4.845 0 0 0 0.2-1.887c-0.08-0.4-0.281-0.522-0.522-0.442s-0.562 0.442-1.124 1.405c1.084 5.541 1.526 9.314 0.321 9.6-0.964 0.161-2.329-0.321-2.529-1.285"/>
  </g>
 </g>
</svg>
