<svg version="1.1" viewBox="0 0 600 400" xmlns="http://www.w3.org/2000/svg">
 <g transform="translate(53.102 -2.3898)">
  <rect x="-53.102" y="2.3898" width="600" height="400" fill="#111b2b"/>
 </g>
 <g transform="translate(53.102 -2.3898)">
  <g fill="#fff" stroke-width="5.8681" aria-label="B/T">
   <path d="m154.08 179.19q16.196 3.5208 24.88 14.083 8.9194 10.328 8.9194 26.758 0 21.125-15.726 32.626-15.492 11.267-46.005 11.267h-75.58v-164.3h70.885q27.462 0 42.484 11.032 15.257 11.032 15.257 31.218 0 13.614-6.8069 23.237-6.5722 9.3888-18.308 14.083zm-86.142-65.252v59.619h52.343q19.951 0 30.748-7.511 10.797-7.7458 10.797-22.298t-10.797-22.064q-10.797-7.7458-30.748-7.7458zm57.976 135.67q22.064 0 33.33-7.511t11.267-23.472q0-30.748-44.597-30.748h-57.976v61.731z"/>
   <path d="m272.36 66.292h15.257l-77.458 221.11h-15.257z"/>
   <path d="m373.16 114.64h-57.741v-15.022h132.85v15.022h-57.741v149.28h-17.369z"/>
  </g>
  <path d="m-3.3877 352.25h509.14" fill="#d71c1c" stroke="#fff" stroke-width="15.7"/>
 </g>
</svg>
