<svg version="1.1" viewBox="0 0 764.68 600" xmlns="http://www.w3.org/2000/svg">
 <g transform="matrix(1 0 0 1.5 107.62 -3.5847)">
  <rect x="-53.102" y="2.3898" width="600" height="400" fill="#111b2b"/>
 </g>
 <g fill="#fff" stroke-width="9.6087" aria-label="BT">
  <path d="m271.79 238.93q26.519 5.7651 40.74 23.06 14.605 16.911 14.605 43.815 0 34.591-25.751 53.423-25.366 18.448-75.331 18.448h-123.76v-269.04h116.07q44.968 0 69.566 18.064 24.982 18.064 24.982 51.117 0 22.292-11.146 38.05-10.762 15.374-29.979 23.06zm-141.05-106.85v97.622h85.708q32.669 0 50.349-12.299 17.68-12.683 17.68-36.512t-17.68-36.128q-17.68-12.683-50.349-12.683zm94.932 222.15q36.128 0 54.576-12.299t18.448-38.434q0-50.349-73.025-50.349h-94.932v101.08z"/>
  <path d="m501.4 133.24h-94.548v-24.598h217.54v24.598h-94.548v244.44h-28.441z"/>
 </g>
 <path d="m88 515.42h533.47" fill="#d71c1c" stroke="#fff" stroke-width="19.695"/>
</svg>
