<svg version="1.1" viewBox="0 0 600 400" xmlns="http://www.w3.org/2000/svg">
 <g transform="translate(53.102 -2.3898)">
  <rect x="-53.102" y="2.3898" width="600" height="400" fill="#111b2b"/>
 </g>
 <g transform="translate(53.102 -2.3898)">
  <g fill="#fff" stroke-width="5.8681" aria-label="S">
   <path d="m232.73 269.62q-18.308 0-35.208-5.868-16.665-5.868-25.819-15.492l6.8069-13.379q8.9194 8.9194 23.707 14.553 14.787 5.3986 30.514 5.3986 22.064 0 33.096-7.9805 11.032-8.2152 11.032-21.125 0-9.8582-6.1027-15.726-5.868-5.868-14.553-8.9194-8.6846-3.2861-24.176-7.0416-18.543-4.6944-29.575-8.9194-11.032-4.4597-19.012-13.379-7.7458-8.9194-7.7458-24.176 0-12.44 6.5722-22.533 6.5722-10.328 20.186-16.43t33.8-6.1027q14.083 0 27.462 3.9902 13.614 3.7555 23.472 10.562l-5.868 13.848q-10.328-6.8069-22.064-10.093-11.736-3.5208-23.003-3.5208-21.594 0-32.626 8.4499-10.797 8.2152-10.797 21.36 0 9.8582 5.868 15.961 6.1027 5.868 15.022 9.1541 9.1541 3.0514 24.411 6.8069 18.073 4.4597 29.105 8.9194 11.267 4.225 19.012 13.144 7.7458 8.6846 7.7458 23.707 0 12.44-6.8069 22.768-6.5722 10.093-20.421 16.196-13.848 5.868-34.034 5.868z" stroke-width="5.8681"/>
  </g>
  <path d="m-3.3877 352.25h509.14" fill="#d71c1c" stroke="#fff" stroke-width="15.7"/>
 </g>
</svg>
