<svg version="1.1" viewBox="0 0 600 400" xmlns="http://www.w3.org/2000/svg">
 <g transform="translate(53.102 -2.3898)">
  <rect x="-53.102" y="2.3898" width="600" height="400" fill="#111b2b"/>
 </g>
 <g fill="#fff" stroke-width="18.095" aria-label="...">
  <path d="m151.72 243q-15.924 0-27.504-11.581-10.857-11.581-10.857-28.228t10.857-27.504q11.581-11.581 27.504-11.581t27.504 11.581q11.581 10.857 11.581 27.504t-11.581 28.228-27.504 11.581z"/>
  <path d="m305.81 243q-15.924 0-27.504-11.581-10.857-11.581-10.857-28.228t10.857-27.504q11.581-11.581 27.504-11.581t27.504 11.581q11.581 10.857 11.581 27.504t-11.581 28.228-27.504 11.581z"/>
  <path d="m459.9 243q-15.924 0-27.504-11.581-10.857-11.581-10.857-28.228t10.857-27.504q11.581-11.581 27.504-11.581t27.504 11.581q11.581 10.857 11.581 27.504t-11.581 28.228-27.504 11.581z"/>
 </g>
 <path d="m49.714 349.86h509.14" fill="#d71c1c" stroke="#fff" stroke-width="15.7"/>
</svg>
